[h264 @ 0x563010ffab40] Reinit context to 1280x720, pix_fmt: yuv420p
Input #0, mov,mp4,m4a,3gp,3g2,mj2, from '/var/www/html/project/media/video/original/Sequence_03.mp4':
  Metadata:
    major_brand     : mp42
    minor_version   : 0
    compatible_brands: mp42mp41
    creation_time   : 2025-09-19T08:41:38.000000Z
  Duration: 00:00:12.39, start: 0.000000, bitrate: 2693 kb/s
    Stream #0:0(eng): Video: h264 (Main), 1 reference frame (avc1 / 0x31637661), yuv420p(tv, bt709, left), 1280x720, 2348 kb/s, 30 fps, 30 tbr, 30k tbn, 60k tbc (default)
    Metadata:
      creation_time   : 2025-09-19T08:41:38.000000Z
      handler_name    : ?Mainconcept Video Media Handler
      encoder         : AVC Coding
    Stream #0:1(eng): Audio: aac (LC) (mp4a / 0x6134706D), 48000 Hz, stereo, fltp, 316 kb/s (default)
    Metadata:
      creation_time   : 2025-09-19T08:41:38.000000Z
      handler_name    : #Mainconcept MP4 Sound Media Handler
Input #1, png_pipe, from '/var/www/html/project/static/images/templates/logo.png':
  Duration: N/A, bitrate: N/A
    Stream #1:0: Video: png, 1 reference frame, rgba(pc), 1920x1080 [SAR 2835:2835 DAR 16:9], 25 tbr, 25 tbn, 25 tbc
[h264 @ 0x56301103a580] Reinit context to 1280x720, pix_fmt: yuv420p
Input #2, mov,mp4,m4a,3gp,3g2,mj2, from '/var/www/html/project/static/images/templates/Codino.mp4':
  Metadata:
    major_brand     : mp42
    minor_version   : 1
    compatible_brands: isommp41mp42
    creation_time   : 2021-07-11T07:02:58.000000Z
  Duration: 00:00:02.00, start: 0.000000, bitrate: 1007 kb/s
    Stream #2:0(ita): Audio: aac (LC) (mp4a / 0x6134706D), 44100 Hz, stereo, fltp, 102 kb/s (default)
    Metadata:
      creation_time   : 2021-07-11T07:02:58.000000Z
      handler_name    : Core Media Audio
    Stream #2:1(und): Video: h264 (High), 1 reference frame (avc1 / 0x31637661), yuv420p(tv, bt709, progressive, left), 1280x720 [SAR 1:1 DAR 16:9], 813 kb/s, 25 fps, 25 tbr, 25k tbn, 50k tbc (default)
    Metadata:
      creation_time   : 2021-07-11T07:02:58.000000Z
      handler_name    : Core Media Video
[Parsed_scale_0 @ 0x563011091040] w:1280 h:720 flags:'bilinear' interl:0
[Parsed_scale_2 @ 0x563011097b80] w:1280 h:720 flags:'bilinear' interl:0
[Parsed_scale_4 @ 0x5630110d03c0] w:1280 h:720 flags:'bilinear' interl:0
Stream mapping:
  Stream #0:0 (h264) -> scale
  Stream #0:1 (aac) -> concat:in0:a0
  Stream #1:0 (png) -> scale
  Stream #2:0 (aac) -> concat:in1:a0
  Stream #2:1 (h264) -> scale
  concat:out:v0 -> Stream #0:0 (libx264)
  concat:out:a0 -> Stream #0:1 (aac)
Press [q] to stop, [?] for help
[h264 @ 0x563011099f80] Reinit context to 1280x720, pix_fmt: yuv420p
[h264 @ 0x5630114b6ec0] Reinit context to 1280x720, pix_fmt: yuv420p
[Parsed_scale_0 @ 0x5630122a40c0] w:1280 h:720 flags:'bilinear' interl:0
[Parsed_scale_2 @ 0x563011098cc0] w:1280 h:720 flags:'bilinear' interl:0
[Parsed_scale_4 @ 0x5630122ad900] w:1280 h:720 flags:'bilinear' interl:0
[graph 0 input from stream 0:0 @ 0x5630122b2100] w:1280 h:720 pixfmt:yuv420p tb:1/30000 fr:30/1 sar:0/1 sws_param:flags=2
[graph 0 input from stream 1:0 @ 0x5630122b3140] w:1920 h:1080 pixfmt:rgba tb:1/25 fr:25/1 sar:2835/2835 sws_param:flags=2
[graph 0 input from stream 2:1 @ 0x5630122b41c0] w:1280 h:720 pixfmt:yuv420p tb:1/25000 fr:25/1 sar:1/1 sws_param:flags=2
[graph_0_in_0_1 @ 0x5630122b5180] tb:1/48000 samplefmt:fltp samplerate:48000 chlayout:0x3
[graph_0_in_2_0 @ 0x5630122b62c0] tb:1/44100 samplefmt:fltp samplerate:44100 chlayout:0x3
[Parsed_concat_7 @ 0x5630122b0140] auto-inserting filter 'auto_resampler_0' between the filter 'graph_0_in_2_0' and the filter 'Parsed_concat_7'
[Parsed_scale_0 @ 0x5630122a40c0] w:1280 h:720 fmt:yuv420p sar:0/1 -> w:1280 h:720 fmt:yuv420p sar:0/1 flags:0x2
[Parsed_setsar_1 @ 0x5630122a4300] w:1280 h:720 sar:0/1 dar:16/9 -> sar:1/1 dar:16/9
[Parsed_scale_2 @ 0x563011098cc0] w:1920 h:1080 fmt:rgba sar:2835/2835 -> w:1280 h:720 fmt:yuva420p sar:1/1 flags:0x2
[Parsed_setsar_3 @ 0x5630122acc80] w:1280 h:720 sar:1/1 dar:16/9 -> sar:1/1 dar:16/9
[Parsed_overlay_6 @ 0x5630122af040] main w:1280 h:720 fmt:yuv420p overlay w:1280 h:720 fmt:yuva420p
[Parsed_overlay_6 @ 0x5630122af040] [framesync @ 0x5630122af1a8] Selected 1/30000 time base
[Parsed_overlay_6 @ 0x5630122af040] [framesync @ 0x5630122af1a8] Sync level 2
[Parsed_scale_4 @ 0x5630122ad900] w:1280 h:720 fmt:yuv420p sar:1/1 -> w:1280 h:720 fmt:yuv420p sar:1/1 flags:0x2
[Parsed_setsar_5 @ 0x5630122ae3c0] w:1280 h:720 sar:1/1 dar:16/9 -> sar:1/1 dar:16/9
[auto_resampler_0 @ 0x5630122bdb00] ch:2 chl:stereo fmt:fltp r:44100Hz -> ch:2 chl:stereo fmt:fltp r:48000Hz
[libx264 @ 0x56301109d140] using SAR=1/1
[libx264 @ 0x56301109d140] using cpu capabilities: MMX2 SSE2Fast SSSE3 SSE4.2 AVX FMA3 BMI2 AVX2
[libx264 @ 0x56301109d140] profile High, level 3.1
[libx264 @ 0x56301109d140] 264 - core 155 r2917 0a84d98 - H.264/MPEG-4 AVC codec - Copyleft 2003-2018 - http://www.videolan.org/x264.html - options: cabac=1 ref=1 deblock=1:0:0 analyse=0x3:0x113 me=hex subme=2 psy=1 psy_rd=1.00:0.00 mixed_ref=0 me_range=16 chroma_me=1 trellis=0 8x8dct=1 cqm=0 deadzone=21,11 fast_pskip=1 chroma_qp_offset=0 threads=22 lookahead_threads=5 sliced_threads=0 nr=0 decimate=1 interlaced=0 bluray_compat=0 constrained_intra=0 bframes=3 b_pyramid=2 b_adapt=1 b_bias=0 direct=1 weightb=1 open_gop=0 weightp=1 keyint=250 keyint_min=25 scenecut=40 intra_refresh=0 rc_lookahead=10 rc=crf mbtree=1 crf=18.0 qcomp=0.60 qpmin=0 qpmax=69 qpstep=4 ip_ratio=1.40 aq=1:1.00
Output #0, mp4, to '/var/www/html/project/media/video/watermarks/Sequence_03.mp4':
  Metadata:
    major_brand     : mp42
    minor_version   : 0
    compatible_brands: mp42mp41
    encoder         : Lavf58.29.100
    Stream #0:0: Video: h264 (libx264), 1 reference frame (avc1 / 0x31637661), yuv420p(progressive), 1280x720 [SAR 1:1 DAR 16:9], q=-1--1, 30 fps, 15360 tbn, 30 tbc (default)
    Metadata:
      encoder         : Lavc58.54.100 libx264
    Side data:
      cpb: bitrate max/min/avg: 0/0/0 buffer size: 0 vbv_delay: -1
    Stream #0:1: Audio: aac (LC) (mp4a / 0x6134706D), 48000 Hz, stereo, fltp, delay 1024, 128 kb/s (default)
    Metadata:
      encoder         : Lavc58.54.100 aac
[Parsed_overlay_6 @ 0x5630122af040] [framesync @ 0x5630122af1a8] Sync level 0
[Parsed_concat_7 @ 0x5630122b0140] EOF on in0:v0, 1 streams left in segment.
[Parsed_concat_7 @ 0x5630122b0140] EOF on in0:a0, 0 streams left in segment.
[Parsed_concat_7 @ 0x5630122b0140] Segment finished at pts=12352000
[Parsed_concat_7 @ 0x5630122b0140] EOF on in1:v0, 1 streams left in segment.
[Parsed_concat_7 @ 0x5630122b0140] EOF on in1:a0, 0 streams left in segment.
[Parsed_concat_7 @ 0x5630122b0140] Segment finished at pts=14370687
No more output streams to write to, finishing.
frame=  420 fps=160 q=-1.0 Lsize=    9101kB time=00:00:14.37 bitrate=5184.9kbits/s speed=5.49x    
[AVIOContext @ 0x563010ff8ec0] Statistics: 0 seeks, 6 writeouts
video:8866kB audio:218kB subtitle:0kB other streams:0kB global headers:0kB muxing overhead: 0.183155%
Input file #0 (/var/www/html/project/media/video/original/Sequence_03.mp4):
  Input stream #0:0 (video): 370 packets read (3619952 bytes); 370 frames decoded; 
  Input stream #0:1 (audio): 579 packets read (489347 bytes); 579 frames decoded (592896 samples); 
  Total: 949 packets (4109299 bytes) demuxed
Input file #1 (/var/www/html/project/static/images/templates/logo.png):
  Input stream #1:0 (video): 1 packets read (111578 bytes); 1 frames decoded; 
  Total: 1 packets (111578 bytes) demuxed
Input file #2 (/var/www/html/project/static/images/templates/Codino.mp4):
  Input stream #2:0 (audio): 89 packets read (26579 bytes); 87 frames decoded (89024 samples); 
  Input stream #2:1 (video): 50 packets read (203365 bytes); 50 frames decoded; 
  Total: 139 packets (229944 bytes) demuxed
Output file #0 (/var/www/html/project/media/video/watermarks/Sequence_03.mp4):
  Output stream #0:0 (video): 420 frames encoded; 420 packets muxed (9078639 bytes); 
  Output stream #0:1 (audio): 674 frames encoded (689793 samples); 675 packets muxed (223327 bytes); 
  Total: 1095 packets (9301966 bytes) muxed
[AVIOContext @ 0x563011101e40] Statistics: 2 seeks, 39 writeouts
[libx264 @ 0x56301109d140] frame I:3     Avg QP:12.98  size:124397
[libx264 @ 0x56301109d140] frame P:122   Avg QP:18.62  size: 47633
[libx264 @ 0x56301109d140] frame B:295   Avg QP:24.05  size:  9808
[libx264 @ 0x56301109d140] consecutive B-frames:  4.0%  6.2%  2.1% 87.6%
[libx264 @ 0x56301109d140] mb I  I16..4: 35.2%  4.0% 60.8%
[libx264 @ 0x56301109d140] mb P  I16..4:  1.7%  1.9%  1.5%  P16..4: 32.6% 17.8% 20.5%  0.0%  0.0%    skip:24.0%
[libx264 @ 0x56301109d140] mb B  I16..4:  0.4%  0.2%  0.0%  B16..8: 26.2% 12.3%  3.4%  direct:13.4%  skip:44.1%  L0:35.1% L1:34.6% BI:30.3%
[libx264 @ 0x56301109d140] 8x8 transform intra:27.6% inter:23.9%
[libx264 @ 0x56301109d140] coded y,uvDC,uvAC intra: 54.9% 42.5% 19.2% inter: 25.9% 8.7% 0.9%
[libx264 @ 0x56301109d140] i16 v,h,dc,p: 54% 23% 20%  3%
[libx264 @ 0x56301109d140] i8 v,h,dc,ddl,ddr,vr,hd,vl,hu: 32% 32% 21%  2%  3%  3%  4%  2%  3%
[libx264 @ 0x56301109d140] i4 v,h,dc,ddl,ddr,vr,hd,vl,hu: 24% 22% 12%  6%  7%  6%  8%  7%  8%
[libx264 @ 0x56301109d140] i8c dc,h,v,p: 59% 20% 17%  5%
[libx264 @ 0x56301109d140] Weighted P-Frames: Y:18.9% UV:0.8%
[libx264 @ 0x56301109d140] kb/s:5066.76
[aac @ 0x5630111026c0] Qavg: 3823.672
[AVIOContext @ 0x563011001e40] Statistics: 4143775 bytes read, 1 seeks
[AVIOContext @ 0x563010fffa40] Statistics: 111578 bytes read, 0 seeks
[AVIOContext @ 0x56301109e580] Statistics: 1530915 bytes read, 42 seeks
